<svg xmlns="http://www.w3.org/2000/svg" viewBox="0 0 129.01 129.01"><defs><style>.cls-1{fill:#42b352;}.cls-2{fill:#fdfdfd;}</style></defs><title>heart_menu</title><g id="Layer_2" data-name="Layer 2"><g id="Layer_17" data-name="Layer 17"><circle class="cls-1" cx="64.51" cy="64.51" r="64.51"/><path class="cls-2" d="M64.51,97.43a2.39,2.39,0,0,1-1.76-.72L37.81,72.65a13.57,13.57,0,0,1-1.1-1Q36,70.89,34.49,69a34.73,34.73,0,0,1-2.72-3.9,24.06,24.06,0,0,1-2.14-4.83,17.59,17.59,0,0,1-.94-5.52Q28.7,46,33.78,41t14-5a15.82,15.82,0,0,1,5.05.86,20.37,20.37,0,0,1,4.8,2.31q2.22,1.46,3.82,2.74a37.37,37.37,0,0,1,3,2.72,37.37,37.37,0,0,1,3-2.72q1.6-1.28,3.82-2.74a20.37,20.37,0,0,1,4.8-2.31A15.82,15.82,0,0,1,81.21,36q9,0,14,5t5.08,13.75q0,8.84-9.15,18l-24.9,24A2.39,2.39,0,0,1,64.51,97.43Z"/><path class="cls-1" d="M55,55.12H74a1.64,1.64,0,0,1,1.21.51,1.67,1.67,0,0,1,.5,1.22A1.71,1.71,0,0,1,74,58.56H55a1.68,1.68,0,0,1-1.21-.5,1.63,1.63,0,0,1-.51-1.21A1.74,1.74,0,0,1,55,55.12ZM55,62H74a1.64,1.64,0,0,1,1.21.51,1.67,1.67,0,0,1,.5,1.22A1.71,1.71,0,0,1,74,65.45H55a1.68,1.68,0,0,1-1.21-.5,1.63,1.63,0,0,1-.51-1.21A1.74,1.74,0,0,1,55,62Zm0,6.89H74a1.71,1.71,0,0,1,1.71,1.71,1.67,1.67,0,0,1-.5,1.22,1.64,1.64,0,0,1-1.21.51H55a1.74,1.74,0,0,1-1.73-1.73,1.63,1.63,0,0,1,.51-1.21A1.68,1.68,0,0,1,55,68.91Z"/></g></g></svg>